<?xml version="1.0" encoding="UTF-8" ?>
<!DOCTYPE svg PUBLIC "-//W3C//DTD SVG 1.1//EN" "http://www.w3.org/Graphics/SVG/1.1/DTD/svg11.dtd">
<svg width="300" height="300" viewBox="90 90 120 120" version="1.1" xmlns="http://www.w3.org/2000/svg">
<g id="#58546bff">
<path fill="#58546b" opacity="1.00" d=" M 150.61 92.29 C 162.34 112.85 174.27 133.30 186.15 153.78 C 171.13 153.76 156.11 153.74 141.08 153.76 C 142.96 150.62 144.79 147.46 146.58 144.26 C 154.25 144.23 161.92 144.26 169.60 144.24 C 161.48 130.08 153.26 115.99 145.12 101.85 C 147.00 98.69 148.81 95.49 150.61 92.29 Z" />
<path fill="#58546b" opacity="1.00" d=" M 108.70 164.98 C 120.52 144.49 132.25 123.94 144.16 103.49 C 151.73 116.46 159.08 129.55 166.67 142.51 C 163.03 142.51 159.39 142.50 155.75 142.50 C 151.94 135.79 147.99 129.16 144.16 122.47 C 136.00 136.63 127.84 150.80 119.69 164.98 C 116.02 164.98 112.36 165.01 108.70 164.98 Z" />
<path fill="#58546b" opacity="1.00" d=" M 121.49 164.98 C 128.91 151.93 136.49 138.98 144.03 126.00 C 145.90 129.10 147.74 132.23 149.55 135.37 C 145.70 142.08 141.86 148.79 138.02 155.50 C 154.40 155.49 170.77 155.50 187.15 155.47 C 189.02 158.60 190.85 161.75 192.53 164.99 C 168.85 165.00 145.17 165.01 121.49 164.98 Z" />
<path fill="#58546b" opacity="1.00" d=" M 108.18 175.08 C 109.42 174.58 111.68 174.44 112.15 176.06 C 112.86 181.58 111.85 187.20 112.58 192.70 C 113.48 194.20 115.31 196.80 112.96 197.98 C 110.72 198.18 107.89 197.15 107.56 194.63 C 106.91 189.77 107.42 184.84 107.23 179.96 C 107.42 178.36 106.85 176.29 108.18 175.08 Z" />
<path fill="#58546b" opacity="1.00" d=" M 153.61 180.82 C 154.12 179.12 154.55 176.66 156.92 177.01 C 158.86 177.32 158.53 179.52 158.93 180.95 C 160.35 181.18 163.57 181.84 162.33 183.97 C 162.08 185.67 159.83 184.99 158.71 185.50 C 158.73 187.93 158.44 190.42 159.07 192.79 C 160.38 194.02 161.96 194.93 163.41 195.98 C 161.25 198.88 156.40 198.53 154.52 195.52 C 153.05 192.51 153.65 189.05 153.49 185.82 C 150.75 184.73 150.94 181.83 153.61 180.82 Z" />
<path fill="#58546b" opacity="1.00" d=" M 183.64 180.78 C 184.26 179.47 184.19 177.24 186.08 177.09 C 188.47 176.38 188.78 179.29 188.98 180.92 C 190.41 181.18 193.63 181.88 192.36 184.01 C 192.12 185.73 189.87 184.96 188.75 185.50 C 188.77 187.92 188.51 190.39 189.09 192.77 C 190.40 194.01 191.98 194.92 193.43 195.97 C 191.17 199.18 185.55 198.43 184.19 194.78 C 183.22 191.90 183.63 188.80 183.50 185.83 C 182.58 185.06 180.18 183.54 181.82 182.29 C 182.27 181.91 183.19 181.15 183.64 180.78 Z" />
<path fill="#58546b" opacity="1.00" d=" M 122.27 181.03 C 127.06 179.88 132.12 184.06 131.90 189.00 C 132.67 194.94 125.93 200.26 120.45 197.30 C 113.69 194.13 114.60 182.37 122.27 181.03 M 123.12 185.08 C 119.95 186.85 120.31 194.69 124.82 193.87 C 127.70 191.93 127.50 184.56 123.12 185.08 Z" />
<path fill="#58546b" opacity="1.00" d=" M 137.63 181.75 C 141.74 180.50 146.19 181.13 150.35 181.84 C 150.03 183.36 149.47 184.80 147.95 185.47 C 147.91 187.67 147.59 190.19 145.62 191.54 C 143.51 192.75 140.96 192.32 138.64 192.60 C 140.64 196.72 147.02 192.61 149.53 196.46 C 151.88 200.04 147.79 204.28 144.07 204.07 C 140.98 204.02 136.91 205.05 134.71 202.25 C 133.20 200.48 135.08 198.59 136.11 197.18 C 134.84 195.21 134.71 192.93 136.47 191.21 C 133.90 188.49 133.90 183.41 137.63 181.75 M 140.01 185.04 C 138.43 186.26 139.73 190.25 141.95 189.32 C 145.25 188.52 142.68 181.96 140.01 185.04 M 138.17 199.92 C 140.17 202.47 143.88 201.36 146.03 199.64 C 143.73 198.65 139.37 196.80 138.17 199.92 Z" />
<path fill="#58546b" opacity="1.00" d=" M 165.31 182.03 C 168.69 179.47 171.64 183.58 172.60 186.49 C 173.34 183.20 175.86 180.04 179.59 181.70 C 178.07 184.33 177.04 187.22 175.37 189.78 C 177.00 192.23 179.05 194.60 179.38 197.65 C 175.59 198.29 172.96 195.54 171.83 192.22 C 170.79 195.23 168.94 198.26 165.25 197.77 C 165.01 194.37 167.64 191.83 169.07 188.99 C 167.66 186.76 166.12 184.56 165.31 182.03 Z" />
</g>
</svg>
