<?xml version="1.0" standalone="no"?>
<!DOCTYPE svg PUBLIC "-//W3C//DTD SVG 20010904//EN"
 "http://www.w3.org/TR/2001/REC-SVG-20010904/DTD/svg10.dtd">
<svg version="1.0" xmlns="http://www.w3.org/2000/svg"
 width="300.000000pt" height="300.000000pt" viewBox="0 0 300.000000 300.000000"
 preserveAspectRatio="xMidYMid meet">
<metadata>
Created by potrace 1.11, written by Peter Selinger 2001-2013
</metadata>
<g transform="translate(0.000000,300.000000) scale(0.100000,-0.100000)"
fill="#000000" stroke="none">
<path d="M1392 2619 l-93 -160 187 -322 c103 -177 197 -340 210 -363 13 -23
105 -182 204 -355 238 -411 230 -397 230 -401 0 -2 -174 -3 -386 -3 -212 0
-389 -2 -393 -5 -4 -3 -32 -48 -62 -100 -30 -52 -58 -103 -64 -112 -5 -9 -22
-37 -37 -62 l-27 -46 770 0 769 0 -46 78 c-25 42 -213 365 -417 717 -203 352
-400 692 -438 755 -37 63 -78 135 -92 160 -51 93 -167 296 -177 310 -6 8 -14
25 -19 37 -6 11 -14 23 -18 26 -5 3 -51 -66 -101 -154z"/>
<path d="M1225 2332 c-22 -37 -45 -77 -51 -88 -10 -19 -89 -156 -234 -404 -21
-36 -70 -121 -109 -190 -39 -69 -76 -132 -81 -140 -5 -8 -26 -44 -46 -80 -21
-36 -130 -225 -242 -420 -113 -195 -213 -371 -224 -390 -11 -19 -55 -96 -98
-170 -43 -74 -77 -137 -75 -139 5 -4 366 -4 370 1 2 3 113 196 270 468 39 69
134 233 210 365 76 132 147 256 158 275 108 193 191 329 197 325 5 -3 111
-181 166 -280 69 -124 210 -363 221 -375 20 -21 377 -24 369 -3 -3 7 -38 69
-78 136 -40 67 -78 131 -84 142 -6 11 -106 187 -224 390 -117 204 -223 388
-235 410 -70 122 -127 221 -134 227 -4 4 -25 -23 -46 -60z"/>
<path d="M1236 1591 c-14 -22 -26 -45 -26 -51 0 -5 -4 -10 -10 -10 -5 0 -10
-4 -10 -9 0 -5 -95 -173 -212 -373 -116 -200 -221 -381 -233 -403 -12 -22 -45
-78 -72 -125 -27 -47 -54 -94 -61 -105 -6 -11 -33 -59 -61 -106 -28 -48 -51
-91 -51 -95 0 -9 2397 -10 2406 -1 5 5 -31 72 -127 239 l-44 78 -838 2 -837 3
81 140 c44 77 92 160 106 185 14 25 65 115 115 201 l89 156 -60 103 c-34 56
-61 103 -61 105 0 2 -15 27 -34 55 l-34 52 -26 -41z"/>
</g>
</svg>
