<svg version="1.0" xmlns="http://www.w3.org/2000/svg" width="400" height="400" viewBox="0 0 300 300"><path d="M139.2 38.1l-9.3 16 18.7 32.2c10.3 17.7 19.7 34 21 36.3 1.3 2.3 10.5 18.2 20.4 35.5 23.8 41.1 23 39.7 23 40.1 0 .2-17.4.3-38.6.3-21.2 0-38.9.2-39.3.5-.4.3-3.2 4.8-6.2 10s-5.8 10.3-6.4 11.2c-.5.9-2.2 3.7-3.7 6.2l-2.7 4.6H270l-4.6-7.8c-2.5-4.2-21.3-36.5-41.7-71.7-20.3-35.2-40-69.2-43.8-75.5-3.7-6.3-7.8-13.5-9.2-16-5.1-9.3-16.7-29.6-17.7-31-.6-.8-1.4-2.5-1.9-3.7-.6-1.1-1.4-2.3-1.8-2.6-.5-.3-5.1 6.6-10.1 15.4z"/><path d="M122.5 66.8c-2.2 3.7-4.5 7.7-5.1 8.8-1 1.9-8.9 15.6-23.4 40.4-2.1 3.6-7 12.1-10.9 19-3.9 6.9-7.6 13.2-8.1 14-.5.8-2.6 4.4-4.6 8-2.1 3.6-13 22.5-24.2 42-11.3 19.5-21.3 37.1-22.4 39-1.1 1.9-5.5 9.6-9.8 17-4.3 7.4-7.7 13.7-7.5 13.9.5.4 36.6.4 37-.1.2-.3 11.3-19.6 27-46.8 3.9-6.9 13.4-23.3 21-36.5s14.7-25.6 15.8-27.5c10.8-19.3 19.1-32.9 19.7-32.5.5.3 11.1 18.1 16.6 28 6.9 12.4 21 36.3 22.1 37.5 2 2.1 37.7 2.4 36.9.3-.3-.7-3.8-6.9-7.8-13.6-4-6.7-7.8-13.1-8.4-14.2-.6-1.1-10.6-18.7-22.4-39-11.7-20.4-22.3-38.8-23.5-41-7-12.2-12.7-22.1-13.4-22.7-.4-.4-2.5 2.3-4.6 6z"/><path d="M123.6 140.9c-1.4 2.2-2.6 4.5-2.6 5.1 0 .5-.4 1-1 1-.5 0-1 .4-1 .9s-9.5 17.3-21.2 37.3c-11.6 20-22.1 38.1-23.3 40.3-1.2 2.2-4.5 7.8-7.2 12.5s-5.4 9.4-6.1 10.5c-.6 1.1-3.3 5.9-6.1 10.6-2.8 4.8-5.1 9.1-5.1 9.5 0 .9 239.7 1 240.6.1.5-.5-3.1-7.2-12.7-23.9l-4.4-7.8-83.8-.2-83.7-.3 8.1-14c4.4-7.7 9.2-16 10.6-18.5 1.4-2.5 6.5-11.5 11.5-20.1l8.9-15.6-6-10.3c-3.4-5.6-6.1-10.3-6.1-10.5 0-.2-1.5-2.7-3.4-5.5l-3.4-5.2-2.6 4.1z"/></svg>